<svg width="200" height="207" viewBox="0 0 200 207" fill="none" xmlns="http://www.w3.org/2000/svg">
<path d="M176.136 7.43615C165.191 -0.686445 150.965 -1.37576 139.006 5.63546C135.427 7.68335 131.456 8.75216 127.426 8.75216C123.395 8.75216 119.424 7.68335 115.845 5.63546C103.887 -1.37576 89.6597 -0.685339 78.7158 7.4356C70.0421 13.8456 63.277 22.9481 59.2715 33.598C55.266 44.2479 54.1991 55.9694 56.205 67.288L72.33 158.755C73.1565 163.444 75.3782 167.692 78.6413 170.823C81.9044 173.954 86.0214 175.789 90.3367 176.034C94.652 176.28 98.9176 174.922 102.454 172.178C105.991 169.434 108.595 165.46 109.853 160.89L119.781 124.812C120.28 123.001 121.292 121.414 122.668 120.286C124.045 119.159 125.713 118.55 127.426 118.55C129.139 118.55 130.807 119.159 132.183 120.286C133.559 121.414 134.572 123.001 135.07 124.812L144.999 160.89C146.256 165.46 148.861 169.434 152.397 172.178C155.934 174.923 160.199 176.28 164.515 176.035C168.83 175.789 172.947 173.955 176.21 170.823C179.473 167.692 181.695 163.444 182.521 158.756L198.646 67.2891C200.652 55.9705 199.586 44.2488 195.58 33.5988C191.575 22.9487 184.81 13.8461 176.136 7.43615V7.43615ZM89.1707 108.299C88.4225 109.13 87.4061 109.599 86.3453 109.602C85.2845 109.605 84.266 109.142 83.514 108.315L76.899 101.039C76.1538 100.21 75.7357 99.0892 75.736 97.9206C75.7363 96.7521 76.1549 95.6312 76.9005 94.8029C77.646 93.9746 78.6579 93.5062 79.7149 93.5C80.7719 93.4938 81.7882 93.9505 82.5416 94.7701L89.1566 102.046C89.9085 102.873 90.3325 103.996 90.3351 105.169C90.3378 106.342 89.919 107.467 89.1709 108.299L89.1707 108.299ZM76.8344 72.5966L83.416 65.2839C84.1657 64.4602 85.1799 63.998 86.2369 63.9983C87.2939 63.9986 88.3079 64.4614 89.0572 65.2856C89.8065 66.1098 90.2302 67.2284 90.2358 68.3969C90.2413 69.5654 89.8283 70.6888 89.0869 71.5217L82.5053 78.8343C81.7556 79.6581 80.7415 80.1203 79.6844 80.12C78.6274 80.1197 77.6135 79.6569 76.8642 78.8327C76.1149 78.0085 75.6911 76.8899 75.6856 75.7214C75.68 74.5529 76.093 73.4295 76.8344 72.5966V72.5966ZM94.2685 91.1909L84.937 91.2169H84.927C83.8661 91.2183 82.8482 90.7539 82.0971 89.9256C81.346 89.0974 80.9233 87.9733 80.922 86.8005C80.9207 85.6278 81.3408 84.5025 82.09 83.6722C82.8392 82.8419 83.8561 82.3746 84.917 82.3731L94.2485 82.3472H94.2585C95.3194 82.3457 96.3373 82.8102 97.0884 83.6384C97.8395 84.4666 98.2622 85.5908 98.2635 86.7635C98.2649 87.9363 97.8447 89.0616 97.0955 89.8919C96.3463 90.7222 95.3294 91.1895 94.2685 91.1909V91.1909ZM147.312 104.076C146.3 104.076 145.311 103.744 144.469 103.122C143.628 102.501 142.972 101.617 142.584 100.583C142.197 99.5496 142.096 98.4121 142.293 97.3147C142.491 96.2173 142.978 95.2094 143.694 94.4182C144.41 93.6271 145.322 93.0883 146.314 92.8701C147.307 92.6518 148.336 92.7639 149.271 93.1921C150.206 93.6204 151.005 94.3455 151.568 95.2759C152.13 96.2062 152.43 97.3 152.43 98.4189C152.43 99.1618 152.298 99.8975 152.04 100.584C151.783 101.27 151.406 101.894 150.931 102.419C150.456 102.945 149.892 103.361 149.271 103.645C148.65 103.93 147.984 104.076 147.312 104.076V104.076ZM168.544 126.705C167.532 126.705 166.542 126.373 165.701 125.751C164.859 125.13 164.203 124.246 163.816 123.212C163.429 122.179 163.327 121.041 163.525 119.944C163.722 118.847 164.21 117.838 164.925 117.047C165.641 116.256 166.553 115.717 167.546 115.499C168.538 115.281 169.567 115.393 170.502 115.821C171.437 116.249 172.237 116.974 172.799 117.905C173.361 118.835 173.661 119.929 173.661 121.048C173.662 121.791 173.529 122.526 173.272 123.213C173.015 123.899 172.638 124.523 172.163 125.048C171.687 125.573 171.123 125.99 170.502 126.274C169.881 126.559 169.216 126.705 168.544 126.705V126.705ZM191.075 63.8278C175.812 68.8317 150.236 73.223 127.426 58.1512C104.39 42.9309 78.5347 47.5591 63.3277 52.6228C63.8037 45.0585 65.8398 37.7151 69.2801 31.1553C72.7203 24.5955 77.4734 18.9934 83.175 14.7782C91.666 8.47634 102.749 7.96678 112.096 13.4485C116.83 16.1734 122.089 17.5962 127.426 17.5962C132.763 17.5962 138.021 16.1734 142.755 13.4485C152.102 7.96761 163.185 8.47712 171.677 14.7785V14.7791C178.812 20.051 184.431 27.4727 187.869 36.1654C191.307 44.8581 192.419 54.4577 191.075 63.8278V63.8278Z" fill="#0798F2"/>
<path d="M50.4468 84.3747L21.9873 84.3656C21.935 84.3626 21.8827 84.3637 21.8305 84.3688C15.9211 84.625 10.3446 87.4606 6.32322 92.2543C2.30186 97.048 0.163729 103.409 0.377467 109.942C0.591205 116.476 3.13937 122.649 7.46346 127.109C11.7876 131.569 17.5348 133.952 23.4455 133.735L26.3972 133.807L26.6616 151.157L14.1606 159.661C13.5788 160.056 13.0984 160.61 12.7651 161.269C12.4318 161.929 12.2569 162.671 12.2568 163.427V201.741C12.2568 202.914 12.6783 204.039 13.4284 204.868C14.1786 205.697 15.196 206.163 16.2568 206.163H44.8037C45.8646 206.163 46.882 205.697 47.6321 204.868C48.3823 204.039 48.8037 202.914 48.8037 201.741V163.427C48.8037 162.671 48.6287 161.929 48.2954 161.269C47.9622 160.61 47.4817 160.056 46.8999 159.661L34.6654 151.338L34.331 129.405C34.3135 128.263 33.8964 127.172 33.1672 126.361C32.4379 125.551 31.4532 125.084 30.4194 125.059L23.5049 124.891C23.4249 124.89 23.3427 124.89 23.2612 124.893C19.4677 125.055 15.7709 123.547 12.9811 120.701C10.1914 117.855 8.53615 113.902 8.37828 109.709C8.22041 105.516 9.57276 101.424 12.1389 98.3315C14.7051 95.2387 18.2758 93.3968 22.0683 93.2094L50.4448 93.2185H50.4458C51.5067 93.2187 52.5241 92.7529 53.2744 91.9238C54.0246 91.0946 54.4462 89.97 54.4463 88.7972C54.4464 87.6245 54.0251 86.4997 53.2751 85.6703C52.525 84.8409 51.5077 84.3749 50.4468 84.3748V84.3747ZM30.5302 158.909L40.8037 165.898V197.319H20.2568V165.898L30.5302 158.909Z" fill="#0798F2"/>
</svg>
