<svg width="145" height="177" viewBox="0 0 145 177" fill="none" xmlns="http://www.w3.org/2000/svg">
<path d="M121.136 7.43615C110.191 -0.686445 95.9653 -1.37576 84.0063 5.63546C80.4271 7.68335 76.4557 8.75216 72.4255 8.75216C68.3953 8.75216 64.424 7.68335 60.8447 5.63546C48.8872 -1.37576 34.6597 -0.685339 23.7158 7.4356C15.0421 13.8456 8.27696 22.9481 4.27148 33.598C0.266 44.2479 -0.800905 55.9694 1.20499 67.288L17.33 158.755C18.1565 163.444 20.3782 167.692 23.6413 170.823C26.9044 173.954 31.0214 175.789 35.3367 176.034C39.652 176.28 43.9176 174.922 47.4543 172.178C50.9909 169.434 53.5954 165.46 54.8529 160.89L64.7811 124.812C65.2798 123.001 66.292 121.414 67.6684 120.286C69.0448 119.159 70.7126 118.55 72.4257 118.55C74.1388 118.55 75.8065 119.159 77.1829 120.286C78.5593 121.414 79.5715 123.001 80.0702 124.812L89.9985 160.89C91.2561 165.46 93.8606 169.434 97.3972 172.178C100.934 174.923 105.199 176.28 109.515 176.035C113.83 175.789 117.947 173.955 121.21 170.823C124.473 167.692 126.695 163.444 127.521 158.756L143.646 67.2891C145.652 55.9705 144.586 44.2488 140.58 33.5988C136.575 22.9487 129.81 13.8461 121.136 7.43615V7.43615ZM34.1707 108.299C33.4225 109.13 32.4061 109.599 31.3453 109.602C30.2845 109.605 29.266 109.142 28.514 108.315L21.899 101.039C21.1538 100.21 20.7357 99.0892 20.736 97.9206C20.7363 96.7521 21.1549 95.6312 21.9005 94.8029C22.646 93.9746 23.6579 93.5062 24.7149 93.5C25.7719 93.4938 26.7882 93.9505 27.5416 94.7701L34.1566 102.046C34.9085 102.873 35.3325 103.996 35.3351 105.169C35.3378 106.342 34.919 107.467 34.1709 108.299L34.1707 108.299ZM21.8344 72.5966L28.416 65.2839C29.1657 64.4602 30.1799 63.998 31.2369 63.9983C32.2939 63.9986 33.3079 64.4614 34.0572 65.2856C34.8065 66.1098 35.2302 67.2284 35.2358 68.3969C35.2413 69.5654 34.8283 70.6888 34.0869 71.5217L27.5053 78.8343C26.7556 79.6581 25.7415 80.1203 24.6844 80.12C23.6274 80.1197 22.6135 79.6569 21.8642 78.8327C21.1149 78.0085 20.6911 76.8899 20.6856 75.7214C20.68 74.5529 21.093 73.4295 21.8344 72.5966V72.5966ZM39.2685 91.1909L29.937 91.2169H29.927C28.8661 91.2183 27.8482 90.7539 27.0971 89.9256C26.346 89.0974 25.9233 87.9733 25.922 86.8005C25.9207 85.6278 26.3408 84.5025 27.09 83.6722C27.8392 82.8419 28.8561 82.3746 29.917 82.3731L39.2485 82.3472H39.2585C40.3194 82.3457 41.3373 82.8102 42.0884 83.6384C42.8395 84.4666 43.2622 85.5908 43.2635 86.7635C43.2649 87.9363 42.8447 89.0616 42.0955 89.8919C41.3463 90.7222 40.3294 91.1895 39.2685 91.1909V91.1909ZM92.3122 104.076C91.3001 104.076 90.3107 103.744 89.4692 103.122C88.6276 102.501 87.9717 101.617 87.5844 100.583C87.1972 99.5496 87.0959 98.4121 87.2934 97.3147C87.4909 96.2173 87.9783 95.2094 88.694 94.4182C89.4098 93.6271 90.3216 93.0883 91.3143 92.8701C92.307 92.6518 93.336 92.7639 94.2711 93.1921C95.2061 93.6204 96.0054 94.3455 96.5676 95.2759C97.1299 96.2062 97.43 97.3 97.43 98.4189C97.43 99.1618 97.2976 99.8975 97.0404 100.584C96.7832 101.27 96.4062 101.894 95.931 102.419C95.4558 102.945 94.8916 103.361 94.2707 103.645C93.6498 103.93 92.9843 104.076 92.3122 104.076V104.076ZM113.544 126.705C112.532 126.705 111.542 126.373 110.701 125.751C109.859 125.13 109.203 124.246 108.816 123.212C108.429 122.179 108.327 121.041 108.525 119.944C108.722 118.847 109.21 117.838 109.925 117.047C110.641 116.256 111.553 115.717 112.546 115.499C113.538 115.281 114.567 115.393 115.502 115.821C116.437 116.249 117.237 116.974 117.799 117.905C118.361 118.835 118.661 119.929 118.661 121.048C118.662 121.791 118.529 122.526 118.272 123.213C118.015 123.899 117.638 124.523 117.163 125.048C116.687 125.573 116.123 125.99 115.502 126.274C114.881 126.559 114.216 126.705 113.544 126.705V126.705ZM136.075 63.8278C120.812 68.8317 95.2361 73.223 72.4256 58.1512C49.3902 42.9309 23.5347 47.5591 8.32769 52.6228C8.80367 45.0585 10.8398 37.7151 14.2801 31.1553C17.7203 24.5955 22.4734 18.9934 28.175 14.7782C36.666 8.47634 47.749 7.96678 57.0962 13.4485C61.8301 16.1734 67.0886 17.5962 72.4258 17.5962C77.763 17.5962 83.0215 16.1734 87.7553 13.4485C97.102 7.96761 108.185 8.47712 116.677 14.7785V14.7791C123.812 20.051 129.431 27.4727 132.869 36.1654C136.307 44.8581 137.419 54.4577 136.075 63.8278V63.8278Z" fill="#0798F2"/>
</svg>
