<svg width="183" height="209" viewBox="0 0 183 209" fill="none" xmlns="http://www.w3.org/2000/svg">
<path d="M181.36 39.2892C176.862 20.8302 162.116 5.79202 143.775 1.03236C130.626 -2.38022 118.041 3.1142 107.363 10.964C106.036 11.9396 104.52 12.4866 103.074 13.2009L114.643 20.6343C117.673 22.5814 118.556 26.6227 116.603 29.6597C114.781 32.4967 110.774 33.6846 107.572 31.6191L66.5154 5.24094C58.0599 0.811931 48.7956 -1.4536 39.2249 1.03236C20.8842 5.7961 6.13803 20.8302 1.64066 39.2892C-2.49724 56.2787 1.4691 72.2762 10.423 84.3672C19.9651 97.2542 23.7721 112.394 25.2467 128.188C27.044 147.439 29.4663 166.624 33.8003 185.467L36.9864 199.326C38.2895 204.987 43.3138 209 49.106 209C54.8125 209 59.7878 205.102 61.1725 199.546L75.2528 143.042C77.1155 135.564 83.8146 130.323 91.494 130.323C99.1734 130.323 105.872 135.568 107.735 143.042L121.815 199.546C123.2 205.102 128.175 209 133.882 209C139.674 209 144.699 204.987 146.002 199.326L149.188 185.467C153.522 166.628 155.94 147.439 157.741 128.188C159.216 112.39 163.023 97.2542 172.565 84.3672C181.531 72.2803 185.497 56.2828 181.36 39.2892V39.2892Z" fill="#6FA677"/>
</svg>
