<svg width="36" height="36" viewBox="0 0 36 36" fill="none" xmlns="http://www.w3.org/2000/svg">
<path d="M33.5776 3.13373C28.9685 -1.7222 22.5979 0.45873 19.4382 2.02853L25.524 6.4591C25.9705 6.7842 26.0689 7.4096 25.7439 7.8561C25.4188 8.3026 24.7933 8.4011 24.3469 8.076L17.5301 3.11327C17.5102 3.12665 17.5 3.13368 17.5 3.13368C11.3205 -1.67606 5.9517 -0.647331 1.5897 4.1647C-1.12455 7.159 0.172449 11.2031 1.53963 15.466C2.36961 18.0539 3.22545 20.7224 3.22545 23.2857C3.43769 23.7555 5.5814 24.134 8.6082 24.3906C8.5024 24.7196 8.4805 25.0822 8.5653 25.4497L8.5954 25.58L11.3763 24.5789C13.0819 24.6704 14.931 24.7298 16.7962 24.7534L9.0483 27.5426L9.4477 29.2732L22.0984 24.7189C27.1092 24.5819 31.2785 24.1321 31.7601 23.2857C31.7601 21.072 32.7746 18.7492 33.8111 16.3761C35.7176 12.0109 37.6985 7.4753 33.5776 3.13373Z" fill="#F2D338"/>
<path d="M27.0954 26.92L10.2999 32.9664L9.9006 31.2358L27.4847 24.9055C27.4928 25.0833 27.4771 25.2659 27.4347 25.4497L27.0954 26.92Z" fill="#F2D338"/>
<path d="M11.0131 34.8353L26.5604 29.2383L26.0887 31.2824L13.0398 35.98C12.2259 35.8858 11.4996 35.4638 11.0131 34.8353Z" fill="#F2D338"/>
<path d="M18.8889 36H22.6135C24.0104 36 25.2225 35.0358 25.5366 33.6746L25.5537 33.6007L18.8889 36Z" fill="#F2D338"/>
</svg>
