<svg width="47" height="37" viewBox="0 0 47 37" fill="none" xmlns="http://www.w3.org/2000/svg">
<path d="M44.6006 19.2784L46.5333 7.54614C46.5666 7.34396 46.5399 7.13645 46.4563 6.94934C46.3728 6.76222 46.2362 6.60373 46.0635 6.49352C39.8819 2.54882 31.8687 0.376423 23.5 0.376423C15.1313 0.376423 7.11804 2.54882 0.936464 6.49352C0.763722 6.60373 0.627126 6.76222 0.543616 6.94934C0.460107 7.13645 0.433355 7.34396 0.466678 7.54614L2.39947 19.2784L0.47118 29.4286C0.432132 29.6342 0.455589 29.8468 0.538525 30.0389C0.62146 30.231 0.760069 30.3939 0.936464 30.5065C7.11804 34.4511 15.1313 36.6236 23.5 36.6236C31.8687 36.6236 39.882 34.4511 46.0635 30.5065C46.2399 30.3939 46.3785 30.231 46.4615 30.0389C46.5444 29.8468 46.5679 29.6342 46.5288 29.4286L44.6006 19.2784ZM35.8599 18.4441V15.4399C35.8608 14.6485 36.1756 13.8898 36.7352 13.3302C37.2948 12.7706 38.0535 12.4558 38.8449 12.4549H39.0753C39.8667 12.4558 40.6254 12.7706 41.185 13.3302C41.7446 13.8898 42.0594 14.6485 42.0603 15.4399V18.4441H35.8599ZM42.0603 20.5378V23.542C42.0594 24.3334 41.7446 25.0921 41.185 25.6517C40.6254 26.2113 39.8667 26.526 39.0753 26.5269H38.8449C38.0535 26.526 37.2948 26.2113 36.7352 25.6517C36.1756 25.0921 35.8608 24.3334 35.8599 23.542V20.5379L42.0603 20.5378ZM17.9813 29.4323H17.6681C16.4924 29.431 15.3653 28.9634 14.534 28.1321C13.7027 27.3009 13.2351 26.1738 13.2338 24.9981V20.6519C13.2346 20.6219 13.2468 20.5933 13.2681 20.5721C13.2893 20.5508 13.3179 20.5386 13.3479 20.5378H22.3014C22.3314 20.5386 22.36 20.5508 22.3813 20.572C22.4025 20.5933 22.4148 20.6219 22.4155 20.6519V24.9981C22.4142 26.1737 21.9466 27.3008 21.1153 28.1321C20.284 28.9634 19.1569 29.431 17.9813 29.4323V29.4323ZM29.0187 9.54957H29.3319C30.5075 9.55089 31.6346 10.0185 32.4659 10.8498C33.2972 11.6811 33.7648 12.8081 33.7662 13.9838V18.33C33.7654 18.36 33.7532 18.3886 33.7319 18.4098C33.7107 18.4311 33.6821 18.4434 33.6521 18.4441H24.6986C24.6685 18.4434 24.6399 18.4311 24.6187 18.4098C24.5975 18.3886 24.5852 18.36 24.5844 18.33V13.9837C24.5858 12.8081 25.0534 11.681 25.8847 10.8497C26.716 10.0185 27.8431 9.55086 29.0187 9.54954V9.54957ZM22.4907 18.33C22.4899 18.36 22.4777 18.3886 22.4565 18.4098C22.4353 18.4311 22.4067 18.4433 22.3767 18.4441H13.4232C13.3932 18.4434 13.3646 18.4311 13.3433 18.4098C13.3221 18.3886 13.3098 18.36 13.3091 18.33V13.9837C13.3104 12.8081 13.778 11.681 14.6093 10.8497C15.4406 10.0185 16.5677 9.55086 17.7433 9.54954H18.0565C19.2322 9.55087 20.3592 10.0185 21.1905 10.8498C22.0218 11.681 22.4894 12.8081 22.4907 13.9837V18.33ZM24.5093 20.6519C24.51 20.6219 24.5223 20.5933 24.5435 20.5721C24.5647 20.5509 24.5933 20.5386 24.6233 20.5379H33.5768C33.6068 20.5386 33.6354 20.5509 33.6567 20.5721C33.6779 20.5933 33.6902 20.6219 33.6909 20.6519V24.9981C33.6896 26.1738 33.222 27.3008 32.3907 28.1321C31.5594 28.9634 30.4323 29.431 29.2567 29.4323H28.9434C27.7678 29.431 26.6408 28.9634 25.8095 28.1321C24.9782 27.3008 24.5106 26.1737 24.5093 24.9981V20.6519ZM4.93969 18.4441V15.4399C4.94058 14.6485 5.25535 13.8898 5.81495 13.3302C6.37455 12.7706 7.13327 12.4558 7.92467 12.4549H8.15507C8.94646 12.4558 9.70519 12.7706 10.2648 13.3302C10.8244 13.8898 11.1392 14.6485 11.1401 15.4399V18.4441H4.93969ZM11.1401 20.5378V23.542C11.1391 24.3334 10.8244 25.0921 10.2648 25.6517C9.70516 26.2113 8.94645 26.526 8.15507 26.5269H7.92467C7.13329 26.526 6.37458 26.2113 5.81498 25.6517C5.25538 25.0921 4.9406 24.3334 4.93969 23.542V20.5379L11.1401 20.5378Z" fill="#07B0F2"/>
</svg>
